# Blender v2.92.0 OBJ File: 'AllModelScene.blend'
# www.blender.org
mtllib WPN_GR_Mk-2_Low.mtl
o WPN_GR_Mk-2_Low.001
v 0.047552 -0.158252 0.025998
v 0.029382 -0.158252 0.051007
v 0.019386 -0.163376 0.037249
v 0.031378 -0.163376 0.020743
v -0.029418 -0.158252 0.051007
v -0.047588 -0.158252 0.025998
v -0.031414 -0.163376 0.020743
v -0.019422 -0.163376 0.037249
v -0.029418 -0.158252 -0.029923
v -0.000018 -0.158252 -0.039476
v -0.000018 -0.163376 -0.022470
v -0.019422 -0.163376 -0.016165
v 0.047552 -0.158252 -0.004914
v 0.031378 -0.163376 0.000341
v -0.000018 -0.158252 0.060560
v -0.000018 -0.163376 0.043554
v -0.047588 -0.158252 -0.004914
v -0.031414 -0.163376 0.000341
v 0.029382 -0.158252 -0.029923
v 0.019386 -0.163376 -0.016165
v 0.077297 -0.117085 0.035663
v 0.047765 -0.117085 0.076310
v -0.047801 -0.117085 0.076310
v -0.077333 -0.117085 0.035663
v -0.047801 -0.117085 -0.055226
v -0.000018 -0.117085 -0.070752
v 0.077297 -0.117085 -0.014579
v -0.000018 -0.117085 0.091836
v -0.077333 -0.117085 -0.014579
v 0.047765 -0.117085 -0.055226
v -0.056246 -0.066792 0.087934
v -0.090997 -0.066792 0.040103
v -0.056246 -0.066792 -0.066850
v -0.000018 -0.066792 -0.085120
v 0.090962 -0.066792 -0.019019
v 0.090962 -0.066792 0.040103
v -0.000018 -0.066792 0.106204
v -0.090997 -0.066792 -0.019019
v 0.056211 -0.066792 -0.066850
v 0.056211 -0.066792 0.087934
v -0.055902 -0.009834 -0.066376
v -0.000018 -0.009834 -0.084534
v 0.090405 -0.009834 -0.018838
v 0.090405 -0.009834 0.039922
v -0.000018 -0.009834 0.105618
v -0.055902 -0.009834 0.087460
v -0.090441 -0.009834 -0.018838
v 0.055867 -0.009834 -0.066376
v 0.055867 -0.009834 0.087460
v -0.090441 -0.009834 0.039922
v -0.000018 0.032985 0.094145
v -0.049159 0.032985 0.078179
v -0.079529 0.032985 -0.015293
v -0.049159 0.032985 -0.057094
v 0.049123 0.032985 -0.057095
v 0.079494 0.032985 -0.015293
v 0.049123 0.032985 0.078179
v -0.079529 0.032985 0.036377
v -0.000018 0.032985 -0.073061
v 0.079494 0.032985 0.036377
v -0.064242 0.037220 -0.010326
v -0.039711 0.037220 -0.044091
v 0.039675 0.037220 -0.044091
v 0.064207 0.037220 -0.010326
v 0.039675 0.037220 0.065175
v -0.000018 0.037220 0.078072
v -0.064242 0.037220 0.031410
v -0.000018 0.037220 -0.056987
v 0.064207 0.037220 0.031410
v -0.039711 0.037220 0.065175
v 0.033932 0.046343 -0.036185
v 0.054913 0.046343 -0.007306
v 0.033932 0.046343 0.057269
v -0.000018 0.046343 0.068300
v -0.054949 0.046343 0.028390
v -0.054949 0.046343 -0.007306
v -0.000018 0.046343 -0.047216
v 0.054913 0.046343 0.028390
v -0.033967 0.046343 0.057269
v -0.033967 0.046343 -0.036185
v 0.020538 0.097058 0.038835
v -0.000018 0.097058 0.045514
v -0.033278 0.097058 0.021349
v -0.033278 0.097058 -0.000265
v -0.000018 0.097058 -0.024429
v 0.020538 0.097058 -0.017751
v 0.033242 0.097058 0.021349
v -0.020574 0.097058 0.038835
v -0.020574 0.097058 -0.017751
v 0.033242 0.097058 -0.000265
v -0.019108 0.096910 0.048822
v -0.019108 0.153522 0.047311
v -0.037665 0.153522 0.016973
v -0.037666 0.096910 0.017728
v 0.038165 0.096910 0.017728
v 0.038165 0.153522 0.016973
v 0.019075 0.153522 0.047311
v 0.019075 0.096910 0.048822
v 0.038165 0.101677 -0.066621
v 0.038416 0.163902 -0.032854
v -0.038201 0.096910 -0.061513
v 0.038165 0.096910 -0.061513
v -0.026692 0.165563 0.067157
v 0.026708 0.165563 0.066956
v 0.038165 0.165563 0.018703
v -0.037129 0.165563 0.018703
v -0.026187 0.152800 0.070710
v 0.026153 0.152800 0.070710
v -0.026187 0.159668 0.071878
v 0.026153 0.159668 0.071878
v -0.038376 0.163902 -0.032853
v -0.038201 0.101677 -0.066621
v 0.019194 0.057281 -0.085327
v 0.019194 0.054953 -0.078180
v 0.016912 -0.012375 -0.086673
v 0.016912 -0.012134 -0.094393
v -0.016947 -0.012375 -0.086673
v -0.016947 -0.012134 -0.094393
v -0.016947 -0.082933 -0.091429
v -0.016947 -0.081350 -0.083869
v -0.019229 0.057281 -0.085327
v -0.019229 0.054953 -0.078180
v 0.016912 -0.081350 -0.083869
v -0.016947 -0.132595 -0.072768
v 0.016912 -0.132595 -0.072768
v 0.016912 -0.082933 -0.091429
v -0.016947 -0.135372 -0.079975
v 0.016912 -0.135372 -0.079975
vt 0.697411 0.322136
vt 0.599806 0.322136
vt 0.599806 0.286749
vt 0.697411 0.286749
vt 0.404595 0.322136
vt 0.306990 0.322136
vt 0.306990 0.286749
vt 0.404595 0.286749
vt 0.111780 0.322136
vt 0.014175 0.322136
vt 0.014175 0.286749
vt 0.111780 0.286749
vt 0.795016 0.322136
vt 0.795016 0.286749
vt 0.502200 0.322136
vt 0.502200 0.286749
vt 0.209386 0.322136
vt 0.209386 0.286749
vt 0.892621 0.322136
vt 0.892621 0.286749
vt 0.990226 0.322136
vt 0.990226 0.286749
vt 0.201181 0.028964
vt 0.222597 0.022206
vt 0.243895 0.029327
vt 0.256940 0.047606
vt 0.256749 0.070062
vt 0.243396 0.088116
vt 0.221980 0.094874
vt 0.200682 0.087754
vt 0.187638 0.069475
vt 0.187828 0.047020
vt 0.697411 0.427576
vt 0.599806 0.427576
vt 0.404595 0.427576
vt 0.306990 0.427576
vt 0.111780 0.427576
vt 0.014175 0.427576
vt 0.795016 0.427576
vt 0.502200 0.427576
vt 0.209386 0.427576
vt 0.892621 0.427576
vt 0.990226 0.427576
vt 0.404595 0.535773
vt 0.306990 0.535773
vt 0.111780 0.535773
vt 0.014175 0.535773
vt 0.795016 0.535773
vt 0.697411 0.535773
vt 0.502200 0.535773
vt 0.209386 0.535773
vt 0.892621 0.535773
vt 0.599806 0.535773
vt 0.990226 0.535773
vt 0.111780 0.654026
vt 0.014175 0.654026
vt 0.795016 0.654026
vt 0.697411 0.654026
vt 0.502200 0.654026
vt 0.404595 0.654026
vt 0.209386 0.654026
vt 0.892621 0.654026
vt 0.599806 0.654026
vt 0.306990 0.654026
vt 0.990226 0.654026
vt 0.502200 0.745762
vt 0.404595 0.745762
vt 0.209386 0.745762
vt 0.111780 0.745762
vt 0.892621 0.745762
vt 0.795016 0.745762
vt 0.599806 0.745762
vt 0.306990 0.745762
vt 0.990226 0.745762
vt 0.697411 0.745762
vt 0.014175 0.745762
vt 0.110023 0.764791
vt 0.207757 0.764791
vt 0.207757 0.805759
vt 0.110023 0.805759
vt 0.794170 0.764791
vt 0.891905 0.764791
vt 0.891905 0.805759
vt 0.794170 0.805759
vt 0.500963 0.764791
vt 0.598699 0.764791
vt 0.598699 0.805759
vt 0.500963 0.805759
vt 0.305493 0.764791
vt 0.305493 0.805759
vt 0.989641 0.764791
vt 0.989641 0.805759
vt 0.696434 0.764791
vt 0.696434 0.805759
vt 0.403228 0.764791
vt 0.403228 0.805759
vt 0.012288 0.764791
vt 0.012288 0.805759
vt 0.891905 0.839232
vt 0.794170 0.839232
vt 0.598699 0.839232
vt 0.500963 0.839232
vt 0.305493 0.839232
vt 0.207757 0.839232
vt 0.989641 0.839232
vt 0.696434 0.839232
vt 0.403228 0.839232
vt 0.110023 0.839232
vt 0.012288 0.839232
vt 0.598699 0.980988
vt 0.500963 0.980988
vt 0.305493 0.980988
vt 0.207757 0.980988
vt 0.989641 0.980988
vt 0.891905 0.980988
vt 0.696434 0.980988
vt 0.403228 0.980988
vt 0.110023 0.980988
vt 0.012288 0.980988
vt 0.794170 0.980988
vt 0.060299 0.042262
vt 0.060299 0.115694
vt 0.025543 0.101947
vt 0.024468 0.013408
vt 0.157588 0.013408
vt 0.157588 0.104055
vt 0.112991 0.115694
vt 0.112991 0.042262
vt 0.723851 0.104045
vt 0.725410 0.025516
vt 0.848321 0.025516
vt 0.796103 0.121575
vt 0.369467 0.159314
vt 0.367027 0.245060
vt 0.282844 0.243332
vt 0.283492 0.158983
vt 0.418231 0.039384
vt 0.418231 0.116627
vt 0.347802 0.133866
vt 0.347802 0.023736
vt 0.638314 0.143121
vt 0.635680 0.125914
vt 0.715885 0.125914
vt 0.710660 0.143121
vt 0.517804 0.023117
vt 0.473569 0.049927
vt 0.439471 0.039384
vt 0.473569 0.106149
vt 0.439471 0.116627
vt 0.517706 0.133827
vt 0.429324 0.039384
vt 0.429324 0.116627
vt 0.720758 0.121575
vt 0.648367 0.121575
vt 0.641454 0.113397
vt 0.643517 0.104045
vt 0.717587 0.135262
vt 0.563029 0.143121
vt 0.636341 0.046838
vt 0.513260 0.046838
vt 0.272669 0.133866
vt 0.272669 0.023736
vt 0.279336 0.153363
vt 0.278983 0.248770
vt 0.847645 0.271633
vt 0.847645 0.125909
vt 0.982741 0.125575
vt 0.982741 0.272111
vt 0.233460 0.172908
vt 0.234433 0.180700
vt 0.160749 0.184295
vt 0.160397 0.176009
vt 0.161165 0.220899
vt 0.161036 0.229235
vt 0.085591 0.230299
vt 0.086251 0.221965
vt 0.755714 0.162113
vt 0.755715 0.235432
vt 0.622130 0.231078
vt 0.622130 0.166468
vt 0.234605 0.222619
vt 0.233777 0.230521
vt 0.085769 0.185164
vt 0.029207 0.222443
vt 0.028881 0.185946
vt 0.084901 0.176872
vt 0.486912 0.231078
vt 0.486912 0.166468
vt 0.020830 0.222524
vt 0.020506 0.185987
vt 0.027443 0.177748
vt 0.384488 0.231079
vt 0.384487 0.166468
vt 0.027964 0.230727
vn 0.5792 -0.7932 0.1882
vn 0.3580 -0.7932 0.4927
vn 0.1023 -0.9847 0.1408
vn 0.1656 -0.9847 0.0538
vn -0.3580 -0.7932 0.4927
vn -0.5792 -0.7932 0.1882
vn -0.1656 -0.9847 0.0538
vn -0.1023 -0.9847 0.1408
vn -0.3580 -0.7932 -0.4927
vn -0.0000 -0.7932 -0.6090
vn 0.0000 -0.9847 -0.1741
vn -0.1023 -0.9847 -0.1408
vn 0.5792 -0.7932 -0.1882
vn 0.1656 -0.9847 -0.0538
vn 0.0000 -0.7932 0.6090
vn 0.0000 -0.9847 0.1741
vn -0.5792 -0.7932 -0.1882
vn -0.1656 -0.9847 -0.0538
vn 0.3580 -0.7932 -0.4927
vn 0.1023 -0.9847 -0.1408
vn 0.8570 -0.4336 0.2785
vn 0.5297 -0.4336 0.7290
vn -0.5297 -0.4335 0.7290
vn -0.8570 -0.4335 0.2785
vn -0.5297 -0.4335 -0.7290
vn -0.0000 -0.4336 -0.9011
vn 0.8570 -0.4336 -0.2785
vn -0.0000 -0.4336 0.9011
vn -0.8570 -0.4335 -0.2785
vn 0.5297 -0.4336 -0.7290
vn -0.5828 -0.1300 0.8022
vn -0.9430 -0.1300 0.3064
vn -0.5828 -0.1300 -0.8022
vn -0.0000 -0.1300 -0.9915
vn 0.9430 -0.1300 -0.3064
vn 0.9430 -0.1300 0.3064
vn -0.0000 -0.1300 0.9915
vn -0.9430 -0.1300 -0.3064
vn 0.5828 -0.1300 -0.8022
vn 0.5828 -0.1300 0.8022
vn -0.5826 0.1324 -0.8019
vn -0.0000 0.1324 -0.9912
vn 0.9427 0.1324 -0.3063
vn 0.9427 0.1324 0.3063
vn -0.0000 0.1324 0.9912
vn -0.5826 0.1324 0.8019
vn -0.9427 0.1324 -0.3063
vn 0.5826 0.1324 -0.8019
vn 0.5826 0.1324 0.8019
vn -0.9427 0.1324 0.3063
vn -0.0000 0.6622 0.7493
vn -0.4404 0.6622 0.6062
vn -0.7126 0.6622 -0.2316
vn -0.4404 0.6622 -0.6062
vn 0.4404 0.6622 -0.6062
vn 0.7126 0.6622 -0.2316
vn 0.4404 0.6622 0.6062
vn -0.7126 0.6622 0.2315
vn -0.0000 0.6622 -0.7493
vn 0.7126 0.6622 0.2316
vn -0.4225 0.8959 -0.1373
vn -0.2611 0.8959 -0.3594
vn 0.2611 0.8959 -0.3594
vn 0.4224 0.8959 -0.1373
vn 0.2611 0.8959 0.3594
vn -0.0000 0.8959 0.4442
vn -0.4225 0.8959 0.1373
vn -0.0000 0.8959 -0.4442
vn 0.4224 0.8959 0.1373
vn -0.2611 0.8959 0.3593
vn 0.4698 0.6011 -0.6466
vn 0.7601 0.6011 -0.2470
vn 0.4698 0.6011 0.6466
vn -0.0000 0.6011 0.7992
vn -0.7601 0.6011 0.2470
vn -0.7601 0.6011 -0.2470
vn -0.0000 0.6011 -0.7992
vn 0.7601 0.6011 0.2470
vn -0.4698 0.6011 0.6466
vn -0.4698 0.6011 -0.6466
vn 0.5362 0.4098 0.7380
vn -0.0000 0.4098 0.9122
vn -0.8675 0.4098 0.2819
vn -0.8675 0.4098 -0.2819
vn -0.0000 0.4098 -0.9122
vn 0.5362 0.4098 -0.7380
vn 0.8675 0.4098 0.2819
vn -0.5362 0.4098 0.7380
vn -0.5362 0.4098 -0.7380
vn 0.8675 0.4098 -0.2819
vn -0.4877 0.0213 0.8727
vn -0.4949 0.0212 0.8687
vn -0.9820 0.0155 0.1884
vn -0.9601 0.0035 0.2796
vn 0.9593 0.0043 0.2824
vn 0.9821 0.0009 0.1885
vn 0.4893 0.0212 0.8719
vn 0.4823 0.0214 0.8758
vn 1.0000 -0.0026 0.0016
vn 1.0000 -0.0023 0.0020
vn 0.0000 -1.0000 -0.0000
vn 0.0007 0.9198 0.3924
vn 0.0007 0.9218 0.3875
vn -0.0000 0.9998 -0.0174
vn -0.9916 0.0278 0.1266
vn -0.9838 0.0086 0.1789
vn -0.9821 0.0110 0.1881
vn 0.0337 -0.9992 -0.0206
vn 0.0186 -0.9995 -0.0252
vn 0.0067 -0.8064 0.5913
vn -0.0182 -0.9995 -0.0253
vn -0.0067 -0.8078 0.5895
vn -0.0331 -0.9992 -0.0208
vn 0.0008 0.2648 0.9643
vn 0.0008 0.2655 0.9641
vn 0.9920 -0.0023 0.1264
vn 0.9796 -0.0057 0.2008
vn 0.9955 -0.0159 0.0933
vn 0.9818 -0.0068 0.1899
vn -0.9960 -0.0149 0.0879
vn -0.9999 0.0012 0.0104
vn -1.0000 -0.0039 0.0088
vn -0.0000 0.8509 -0.5254
vn -0.0000 0.8489 -0.5286
vn 1.0000 -0.0000 0.0000
vn -1.0000 0.0072 0.0068
vn -0.0000 0.4392 -0.8984
vn 0.9765 -0.1891 -0.1030
vn 0.9794 -0.1777 -0.0959
vn 0.9999 -0.0164 -0.0028
vn 0.9999 -0.0162 -0.0028
vn -0.9999 -0.0164 -0.0028
vn -0.9999 -0.0162 -0.0028
vn -1.0000 0.0000 0.0000
vn 0.0000 0.2765 -0.9610
vn 0.0000 0.0449 -0.9990
vn -0.9794 -0.1777 -0.0959
vn -0.9765 -0.1891 -0.1030
vn 0.0000 -0.2643 0.9645
vn 0.0000 -0.0433 0.9991
vn 0.0000 0.1266 0.9919
vn 0.0000 0.2117 0.9773
vn 0.0000 -0.1281 -0.9918
vn 0.0000 -0.9331 0.3596
vn 0.0000 -0.2134 -0.9770
vn 0.9251 -0.3286 -0.1902
vn 0.0000 -0.3692 0.9294
vn -0.9251 -0.3286 -0.1902
usemtl WPN_GR_Mk-2_Low
s 1
f 1/1/1 2/2/2 3/3/3 4/4/4
f 5/5/5 6/6/6 7/7/7 8/8/8
f 9/9/9 10/10/10 11/11/11 12/12/12
f 13/13/13 1/1/1 4/4/4 14/14/14
f 15/15/15 5/5/5 8/8/8 16/16/16
f 17/17/17 9/9/9 12/12/12 18/18/18
f 19/19/19 13/13/13 14/14/14 20/20/20
f 2/2/2 15/15/15 16/16/16 3/3/3
f 6/6/6 17/17/17 18/18/18 7/7/7
f 10/21/10 19/19/19 20/20/20 11/22/11
f 12/23/12 11/24/11 20/25/20 14/26/14 4/27/4 3/28/3 16/29/16 8/30/8 7/31/7 18/32/18
f 2/2/2 1/1/1 21/33/21 22/34/22
f 6/6/6 5/5/5 23/35/23 24/36/24
f 10/10/10 9/9/9 25/37/25 26/38/26
f 1/1/1 13/13/13 27/39/27 21/33/21
f 5/5/5 15/15/15 28/40/28 23/35/23
f 9/9/9 17/17/17 29/41/29 25/37/25
f 13/13/13 19/19/19 30/42/30 27/39/27
f 15/15/15 2/2/2 22/34/22 28/40/28
f 17/17/17 6/6/6 24/36/24 29/41/29
f 19/19/19 10/21/10 26/43/26 30/42/30
f 24/36/24 23/35/23 31/44/31 32/45/32
f 26/38/26 25/37/25 33/46/33 34/47/34
f 21/33/21 27/39/27 35/48/35 36/49/36
f 23/35/23 28/40/28 37/50/37 31/44/31
f 25/37/25 29/41/29 38/51/38 33/46/33
f 27/39/27 30/42/30 39/52/39 35/48/35
f 28/40/28 22/34/22 40/53/40 37/50/37
f 29/41/29 24/36/24 32/45/32 38/51/38
f 30/42/30 26/43/26 34/54/34 39/52/39
f 22/34/22 21/33/21 36/49/36 40/53/40
f 34/47/34 33/46/33 41/55/41 42/56/42
f 36/49/36 35/48/35 43/57/43 44/58/44
f 31/44/31 37/50/37 45/59/45 46/60/46
f 33/46/33 38/51/38 47/61/47 41/55/41
f 35/48/35 39/52/39 48/62/48 43/57/43
f 37/50/37 40/53/40 49/63/49 45/59/45
f 38/51/38 32/45/32 50/64/50 47/61/47
f 39/52/39 34/54/34 42/65/42 48/62/48
f 40/53/40 36/49/36 44/58/44 49/63/49
f 32/45/32 31/44/31 46/60/46 50/64/50
f 46/60/46 45/59/45 51/66/51 52/67/52
f 41/55/41 47/61/47 53/68/53 54/69/54
f 43/57/43 48/62/48 55/70/55 56/71/56
f 45/59/45 49/63/49 57/72/57 51/66/51
f 47/61/47 50/64/50 58/73/58 53/68/53
f 48/62/48 42/65/42 59/74/59 55/70/55
f 49/63/49 44/58/44 60/75/60 57/72/57
f 50/64/50 46/60/46 52/67/52 58/73/58
f 42/56/42 41/55/41 54/69/54 59/76/59
f 44/58/44 43/57/43 56/71/56 60/75/60
f 54/77/54 53/78/53 61/79/61 62/80/62
f 56/81/56 55/82/55 63/83/63 64/84/64
f 51/85/51 57/86/57 65/87/65 66/88/66
f 53/78/53 58/89/58 67/90/67 61/79/61
f 55/82/55 59/91/59 68/92/68 63/83/63
f 57/86/57 60/93/60 69/94/69 65/87/65
f 58/89/58 52/95/52 70/96/70 67/90/67
f 59/97/59 54/77/54 62/80/62 68/98/68
f 60/93/60 56/81/56 64/84/64 69/94/69
f 52/95/52 51/85/51 66/88/66 70/96/70
f 64/84/64 63/83/63 71/99/71 72/100/72
f 66/88/66 65/87/65 73/101/73 74/102/74
f 61/79/61 67/90/67 75/103/75 76/104/76
f 63/83/63 68/92/68 77/105/77 71/99/71
f 65/87/65 69/94/69 78/106/78 73/101/73
f 67/90/67 70/96/70 79/107/79 75/103/75
f 68/98/68 62/80/62 80/108/80 77/109/77
f 69/94/69 64/84/64 72/100/72 78/106/78
f 70/96/70 66/88/66 74/102/74 79/107/79
f 62/80/62 61/79/61 76/104/76 80/108/80
f 74/102/74 73/101/73 81/110/81 82/111/82
f 76/104/76 75/103/75 83/112/83 84/113/84
f 71/99/71 77/105/77 85/114/85 86/115/86
f 73/101/73 78/106/78 87/116/87 81/110/81
f 75/103/75 79/107/79 88/117/88 83/112/83
f 77/109/77 80/108/80 89/118/89 85/119/85
f 78/106/78 72/100/72 90/120/90 87/116/87
f 79/107/79 74/102/74 82/111/82 88/117/88
f 80/108/80 76/104/76 84/113/84 89/118/89
f 72/100/72 71/99/71 86/115/86 90/120/90
f 91/121/91 92/122/92 93/123/93 94/124/94
f 95/125/95 96/126/96 97/127/97 98/128/98
f 98/128/98 97/127/97 92/122/92 91/121/91
f 96/129/96 95/130/95 99/131/99 100/132/100
f 95/133/101 94/134/101 101/135/101 102/136/101
f 103/137/102 104/138/103 105/139/104 106/140/104
f 106/141/105 93/142/93 107/143/106 103/144/107
f 93/145/108 92/146/109 107/147/110
f 92/146/109 97/148/111 108/149/112 107/147/110
f 97/148/111 96/150/113 108/149/112
f 109/151/114 110/152/115 104/138/103 103/137/102
f 105/153/116 96/129/96 100/132/100
f 104/154/117 110/155/118 108/156/119
f 107/143/106 109/157/120 103/144/107
f 95/125/101 98/128/101 91/121/101 94/124/101
f 93/142/93 106/141/105 111/158/121
f 104/154/117 108/156/119 96/129/96 105/153/116
f 94/159/94 93/142/93 111/158/121 112/160/122
f 106/140/104 105/139/104 100/161/123 111/162/124
f 95/133/125 102/136/125 99/163/125
f 101/135/126 94/134/126 112/164/126
f 99/165/127 112/166/127 111/167/124 100/168/123
f 113/169/128 114/170/129 115/171/130 116/172/131
f 117/173/132 118/174/133 119/175/134 120/176/134
f 121/177/135 113/178/135 116/179/136 118/180/136
f 122/181/137 121/182/138 118/174/133 117/173/132
f 114/170/139 122/181/139 117/173/140 115/171/140
f 123/183/141 120/176/141 124/184/142 125/185/142
f 115/171/140 117/173/140 120/176/141 123/183/141
f 116/172/131 115/171/130 123/183/125 126/186/125
f 118/180/136 116/179/136 126/187/143 119/188/143
f 125/185/144 124/184/144 127/189/144 128/190/144
f 126/186/125 123/183/125 125/185/125 128/191/125
f 119/188/143 126/187/143 128/192/145 127/193/145
f 120/176/134 119/175/134 127/194/134 124/184/134
f 112/166/127 99/165/127 113/178/135 121/177/135
f 99/163/146 102/136/146 114/170/129 113/169/128
f 102/136/147 101/135/147 122/181/139 114/170/139
f 101/135/148 112/164/148 121/182/138 122/181/137
f 107/147/110 108/149/112 110/152/115 109/151/114
